<?xml version="1.0" encoding="utf-8"?>
<!-- Generator: Adobe Illustrator 22.0.1, SVG Export Plug-In . SVG Version: 6.00 Build 0)  -->
<svg version="1.1" id="Layer_1" xmlns="http://www.w3.org/2000/svg" xmlns:xlink="http://www.w3.org/1999/xlink" x="0px" y="0px"
	 viewBox="0 0 36 36" style="enable-background:new 0 0 36 36;" xml:space="preserve">
<style type="text/css">
	.st0{fill:#E11F26;}
</style>
<path class="st0" d="M18,0.5C8.3,0.5,0.5,8.3,0.5,18c0,9.7,7.8,17.5,17.5,17.5c9.7,0,17.5-7.8,17.5-17.5C35.5,8.3,27.7,0.5,18,0.5z
	 M21.9,12.9c-0.7,0-1.5,0-1.9,0c-0.4,0-0.8,0.4-0.8,0.7c0,0.3,0,1.9,0,1.9s2.3,0,2.6,0c-0.1,1.5-0.3,2.8-0.3,2.8h-2.3v7.8h-3.5v-7.8
	h-1.7v-2.8h1.7c0,0,0-1.9,0-2.3c0-0.4-0.1-3.3,3.6-3.3c0.5,0,1.6,0,2.6,0C21.9,11.2,21.9,12.5,21.9,12.9z"/>
</svg>
