<?xml version="1.0" encoding="utf-8"?>
<!-- Generator: Adobe Illustrator 22.0.1, SVG Export Plug-In . SVG Version: 6.00 Build 0)  -->
<svg version="1.1" id="Layer_1" xmlns="http://www.w3.org/2000/svg" xmlns:xlink="http://www.w3.org/1999/xlink" x="0px" y="0px"
	 viewBox="0 0 36 36" style="enable-background:new 0 0 36 36;" xml:space="preserve">
<style type="text/css">
	.st0{fill:#E11F26;}
</style>
<g>
	<path class="st0" d="M18,0.5C8.3,0.5,0.5,8.3,0.5,18c0,9.7,7.8,17.5,17.5,17.5c9.7,0,17.5-7.8,17.5-17.5C35.5,8.3,27.7,0.5,18,0.5z
		 M26.1,21.5c0,0.9-0.2,1.5-0.4,2c-0.2,0.5-0.5,1-0.9,1.4c-0.5,0.5-0.9,0.7-1.4,0.9c-0.5,0.2-1.1,0.3-2,0.4c-0.9,0-1.1,0-3.3,0
		c-2.2,0-2.5,0-3.3,0c-0.9,0-1.5-0.2-2-0.4c-0.5-0.2-1-0.5-1.4-0.9c-0.5-0.5-0.7-0.9-0.9-1.4c-0.2-0.5-0.3-1.1-0.4-2
		c0-0.9,0-1.1,0-3.3c0-2.2,0-2.5,0-3.3c0-0.9,0.2-1.5,0.4-2c0.2-0.5,0.5-1,0.9-1.4c0.5-0.5,0.9-0.7,1.4-0.9c0.5-0.2,1.1-0.3,2-0.4
		c0.9,0,1.1,0,3.3,0c2.2,0,2.5,0,3.3,0c0.9,0,1.5,0.2,2,0.4c0.5,0.2,1,0.5,1.4,0.9c0.5,0.5,0.7,0.9,0.9,1.4c0.2,0.5,0.3,1.1,0.4,2
		c0,0.9,0,1.1,0,3.3C26.2,20.4,26.2,20.7,26.1,21.5z"/>
	<g>
		<circle class="st0" cx="18.1" cy="18.2" r="2.7"/>
		<path class="st0" d="M24.7,14.9c0-0.8-0.2-1.2-0.3-1.5c-0.1-0.4-0.3-0.6-0.6-0.9c-0.3-0.3-0.6-0.5-0.9-0.6
			c-0.3-0.1-0.7-0.2-1.5-0.3c-0.9,0-1.1,0-3.3,0s-2.4,0-3.3,0c-0.8,0-1.2,0.2-1.5,0.3c-0.4,0.1-0.6,0.3-0.9,0.6
			c-0.3,0.3-0.5,0.6-0.6,0.9c-0.1,0.3-0.2,0.7-0.3,1.5c0,0.9,0,1.1,0,3.3c0,2.2,0,2.4,0,3.3c0,0.8,0.2,1.2,0.3,1.5
			c0.1,0.4,0.3,0.6,0.6,0.9c0.3,0.3,0.6,0.5,0.9,0.6c0.3,0.1,0.7,0.2,1.5,0.3c0.9,0,1.1,0,3.3,0c2.2,0,2.4,0,3.3,0
			c0.8,0,1.2-0.2,1.5-0.3c0.4-0.1,0.6-0.3,0.9-0.6c0.3-0.3,0.5-0.6,0.6-0.9c0.1-0.3,0.2-0.7,0.3-1.5c0-0.9,0-1.1,0-3.3
			C24.7,16,24.7,15.7,24.7,14.9z M18.1,22.3c-2.3,0-4.2-1.9-4.2-4.2c0-2.3,1.9-4.2,4.2-4.2c2.3,0,4.2,1.9,4.2,4.2
			C22.2,20.5,20.4,22.3,18.1,22.3z M22.4,14.8c-0.5,0-1-0.4-1-1c0-0.5,0.4-1,1-1c0.5,0,1,0.4,1,1C23.4,14.4,22.9,14.8,22.4,14.8z"/>
	</g>
</g>
</svg>
