<svg enable-background="new 0 0 175 90" viewBox="0 0 175 90" xmlns="http://www.w3.org/2000/svg"><path d="m38.9 72.6h-5.8v-3.9h16.4v3.9h-5.8v16.7h-4.8zm13.2-3.6c1.6-.2 3.8-.4 6.4-.4 3.2 0 5.4.5 6.9 1.6 1.3 1 2 2.4 2 4.3 0 2.6-1.9 4.4-3.8 5v.1c1.5.6 2.3 1.9 2.9 3.8.7 2.4 1.3 5 1.7 5.8h-5c-.3-.6-.9-2.3-1.5-4.8-.6-2.6-1.5-3.3-3.5-3.3h-1.4v8.1h-4.8v-20.2zm4.8 8.8h1.9c2.4 0 3.8-1.2 3.8-3 0-1.9-1.3-2.8-3.6-2.8-1.2 0-1.8.1-2.2.2v5.6zm19.3 6.2-1.5 5.3h-5l6.5-20.6h6.4l6.7 20.6h-5.3l-1.7-5.3zm5.4-3.5-1.3-4.4c-.4-1.2-.8-2.7-1.1-4h-.1c-.3 1.2-.6 2.8-1 4l-1.3 4.4zm13.6 8.8-6.9-20.6h5.3l2.6 8.7c.7 2.5 1.4 4.8 1.9 7.4h.1c.5-2.5 1.2-4.9 1.9-7.3l2.7-8.8h5.1l-7.2 20.6zm27.9-8.7h-7.9v4.9h8.8v3.8h-13.6v-20.6h13.2v3.8h-8.4v4.3h7.9zm4.2-11.9h4.8v16.7h8.5v3.9h-13.3zm-125.6 2.3s77.2-19.6 171.4 0c0 0-73.5-28.2-171.4 0zm93.7-15.7v-15.8c.5-.1 1.5-.3 2.8-.3 5.4 0 8.7 3.2 8.7 9.2 0 3.1-.8 5.5-2.2 7.2 2.4.1 4.8.3 7.1.4 1-2.1 1.6-4.7 1.6-7.8 0-5.1-1.8-8.7-4.7-10.9-2.6-2.1-6.1-3.1-11.3-3.1-3.1 0-6.1.3-8.4.6v20.4c2.3 0 4.4 0 6.4.1zm-27.7.7c-1.3-1.7-2-4.2-2-7.1 0-5.6 2.6-9.8 7.2-9.8s7.1 4.5 7.1 9.7c0 2.6-.6 4.9-1.6 6.6 2.5-.1 5-.2 7.5-.2.7-1.9 1.1-4.2 1.1-6.7 0-8-4.9-14.7-14-14.7-8.7 0-14.3 6.5-14.3 15.1 0 2.8.6 5.4 1.7 7.6 2.4-.1 4.8-.3 7.3-.5zm-35.6 4.5v-2.5h-11.3v-6.9h10.2v-5.3h-10.2v-6h10.8v-5.4h-17v28.9h4.2c4.5-1 9-1.9 13.3-2.8zm4.2-.7 7.2-1.2.2-.6c.9-2 1.6-3.5 2.2-5.2h.1c.8 1.6 1.4 3.1 2.4 5.1 2.1-.3 4.3-.5 6.4-.8l-4.8-8.7 7.8-14.1h-7.1l-2.3 5.3c-.7 1.7-1.2 3-1.9 4.8h-.1c-.7-1.6-1.3-3-2.1-4.8l-2.4-5.3h-7.2l7.7 14.3zm113.5-8.6c3.3 1.2 4.6 2.2 4.6 4 0 1.9-1.5 3.1-4.4 3.1-2.7 0-5.3-.9-6.9-1.8l-.8 3.3c5 .9 9.4 1.9 13.2 2.8 3.5-1.5 5.2-4.5 5.2-7.9 0-4.1-2.2-6.7-7.1-8.6-3.6-1.4-5.1-2.2-5.1-4.1 0-1.5 1.3-2.8 4-2.8s4.7.8 5.7 1.4l1.4-5.2c-1.6-.8-3.9-1.5-7-1.5-6.5 0-10.4 3.7-10.4 8.7 0 4.2 3 6.9 7.6 8.6zm-11.8 7.9c1.4-2.1 2.1-4.9 2.1-8.5v-16.2h-6.7v16.6c0 3.7-1 6-2.9 7 2.6.3 5.1.7 7.5 1.1zm-13.6-1.9c-1.2-1.2-1.9-3.3-1.9-6.2v-16.6h-6.7v16.1c0 2.3.3 4.2.8 5.9 2.7.2 5.3.5 7.8.8zm-41.2-38.2s1.4 6.2 14.4 5.3c0 0 8.9-2.6 16.7 5.2 0 0 1.8-10.1 13.3-11 0 0-8.8-1.3-14.3 5.5 0 0-4-5.3-15.8-2.1 0 0-7.2 2.9-14.3-2.9zm31-17.7s-2.3 5.9 9 12.5c0 0 8.9 2.9 10.9 13.7 0 0 7.2-7.3 17.2-1.6 0 0-6.5-6-14.9-3.5 0 0-.3-6.6-11.9-10.7-.1 0-7.8-1.6-10.3-10.4z" fill="#e20613"/></svg>