<?xml version="1.0" encoding="utf-8"?>
<!-- Generator: Adobe Illustrator 22.0.1, SVG Export Plug-In . SVG Version: 6.00 Build 0)  -->
<svg version="1.1" id="Layer_1" xmlns="http://www.w3.org/2000/svg" xmlns:xlink="http://www.w3.org/1999/xlink" x="0px" y="0px"
	 viewBox="0 0 13 15" style="enable-background:new 0 0 13 15;" xml:space="preserve">
<style type="text/css">
	.st0{fill:#00B5B2;}
</style>
<path class="st0" d="M12.4,9.4c0.1-0.1,0.2-0.2,0.2-0.3V3.9c0-0.1-0.1-0.3-0.2-0.3c0,0-5.9-2.7-5.9-2.7S0.6,3.6,0.6,3.6
	C0.5,3.6,0.4,3.8,0.4,3.9c0,0,0,7.2,0,7.2c0,0.1,0.1,0.2,0.2,0.3c0,0,5.9,2.7,5.9,2.7s5.9-2.7,5.9-2.8c0.1-0.1,0.2-0.2,0.2-0.3v-0.8
	l-6.1,2.8l-5.2-2.4V4.3l5.2-2.4l5.1,2.4v4.4l-5.1,2.4L3.2,9.5V6.5L6.5,8v0l3.3-1.5v1L6.5,9v0L4,7.9v0.8C4,8.8,4.1,8.9,4.2,9
	c0,0,2.3,1.1,2.3,1.1v0c0,0,4.1-1.9,4.1-1.9c0.1-0.1,0.1-0.1,0.2-0.3c0,0,0-2.9,0-2.9c0-0.1-0.1-0.2-0.2-0.3c0,0,0,0,0,0
	c0,0-4-1.9-4-1.9S2.4,4.8,2.4,4.8C2.3,4.8,2.3,4.9,2.3,5.1c0,0,0,4.9,0,4.9c0,0.1,0.1,0.2,0.2,0.3c0,0,4.1,1.9,4.1,1.9
	S12.4,9.4,12.4,9.4z M6.5,3.9L6.5,3.9l3.3,1.5L6.5,7L3.2,5.5L6.5,3.9z"/>
</svg>
