<?xml version="1.0" encoding="utf-8"?>
<!-- Generator: Adobe Illustrator 22.0.1, SVG Export Plug-In . SVG Version: 6.00 Build 0)  -->
<svg version="1.1" id="Capa_1" xmlns="http://www.w3.org/2000/svg" xmlns:xlink="http://www.w3.org/1999/xlink" x="0px" y="0px"
	 viewBox="0 0 20 20" style="enable-background:new 0 0 20 20;" xml:space="preserve">
<style type="text/css">
	.st0{fill:#FFFFFF;}
</style>
<g>
	<g>
		<g>
			<path class="st0" d="M10,1C7.4,1,5.3,3.1,5.3,5.7s2.1,4.7,4.7,4.7s4.7-2.1,4.7-4.7S12.6,1,10,1z"/>
		</g>
	</g>
	<g>
		<g>
			<path class="st0" d="M18,14.1c-0.1-0.3-0.3-0.6-0.5-0.9c-0.9-1.4-2.4-2.3-4-2.5c-0.2,0-0.4,0-0.6,0.1c-0.9,0.6-1.9,1-2.9,1
				s-2.1-0.3-2.9-1c-0.2-0.1-0.4-0.2-0.6-0.1c-1.6,0.2-3.1,1.1-4,2.5c-0.2,0.3-0.3,0.6-0.5,0.9c-0.1,0.1,0,0.3,0,0.4
				c0.2,0.3,0.4,0.6,0.6,0.8c0.3,0.4,0.6,0.7,0.9,1.1c0.3,0.3,0.6,0.6,0.9,0.8C6,18.4,8,19,10,19s3.9-0.6,5.6-1.8
				c0.3-0.2,0.7-0.5,0.9-0.8c0.3-0.3,0.7-0.7,0.9-1.1c0.2-0.3,0.4-0.5,0.6-0.8C18.1,14.3,18.1,14.2,18,14.1z"/>
		</g>
	</g>
</g>
</svg>
