<?xml version="1.0" encoding="utf-8"?>
<!-- Generator: Adobe Illustrator 22.0.1, SVG Export Plug-In . SVG Version: 6.00 Build 0)  -->
<svg version="1.1" id="Layer_1" xmlns="http://www.w3.org/2000/svg" xmlns:xlink="http://www.w3.org/1999/xlink" x="0px" y="0px"
	 viewBox="0 0 355 182" style="enable-background:new 0 0 355 182;" xml:space="preserve">
<style type="text/css">
	.st0{fill:#FFFFFF;}
</style>
<path class="st0" d="M81.4,144.4H69.9v-7.7h32.5v7.7H90.9v33h-9.6V144.4z M107.6,137.2c3.1-0.5,7.6-0.8,12.8-0.8
	c6.3,0,10.7,0.9,13.7,3.2c2.6,1.9,4,4.8,4,8.6c0,5.1-3.8,8.7-7.5,10v0.2c3,1.1,4.6,3.8,5.7,7.6c1.3,4.7,2.6,10,3.4,11.5h-9.8
	c-0.6-1.2-1.7-4.5-2.9-9.5c-1.2-5.1-3-6.5-7-6.5H117v16h-9.5V137.2z M117,154.7h3.8c4.8,0,7.6-2.3,7.6-5.9c0-3.7-2.6-5.6-7-5.6
	c-2.3,0-3.6,0.1-4.3,0.3V154.7z M155.2,166.9l-3,10.5h-9.9l12.9-40.7h12.6l13.2,40.7h-10.4l-3.3-10.5H155.2z M166,160l-2.6-8.6
	c-0.8-2.4-1.5-5.4-2.1-7.9h-0.1c-0.6,2.4-1.3,5.5-1.9,7.9l-2.5,8.6H166z M192.9,177.3l-13.6-40.7h10.5l5.2,17.2
	c1.4,4.9,2.8,9.5,3.8,14.6h0.2c1.1-4.9,2.4-9.7,3.8-14.4l5.4-17.4h10.2l-14.3,40.7H192.9z M248.1,160.1h-15.6v9.7h17.4v7.6h-27
	v-40.7H249v7.6h-16.5v8.5h15.6V160.1z M256.5,136.6h9.6v33h16.8v7.7h-26.4V136.6z M7.8,141.2c0,0,152.8-38.8,339.2,0
	C347,141.2,201.6,85.3,7.8,141.2z M193.3,110V78.8c1.1-0.3,2.9-0.5,5.6-0.5c10.7,0,17.3,6.3,17.3,18.2c0,6.2-1.5,10.9-4.3,14.2
	c4.8,0.2,9.5,0.5,14,0.9c2-4.1,3.3-9.3,3.3-15.5c0-10.1-3.6-17.1-9.2-21.6c-5.2-4.1-12-6.1-22.4-6.1c-6.2,0-12.1,0.5-16.6,1.3v40.3
	C185.2,109.9,189.3,110,193.3,110z M138.3,111.5c-2.5-3.4-3.9-8.3-3.9-14c0-11.1,5.2-19.4,14.2-19.4c9.1,0,14,8.8,14,19.2
	c0,5.2-1.1,9.7-3.2,13.1c5-0.2,10-0.3,14.8-0.4c1.5-3.8,2.3-8.3,2.3-13.2c0-15.9-9.8-29-27.7-29c-17.1,0-28.4,12.8-28.4,30
	c0,5.5,1.2,10.6,3.3,15C128.7,112.2,133.6,111.8,138.3,111.5z M68.1,120.5v-5.1H45.6v-13.6h20.1V91.3H45.6V79.4h21.3V68.8H33.3V126
	h8.3C50.6,124,59.4,122.1,68.1,120.5z M76.2,119c4.8-0.8,9.6-1.6,14.3-2.3l0.5-1.1c1.8-4,3.2-7,4.3-10.3h0.2c1.5,3.2,2.8,6.2,4.7,10
	c4.2-0.6,8.4-1.1,12.6-1.5l-9.5-17.1l15.4-27.9h-14.1l-4.6,10.4c-1.4,3.3-2.4,5.9-3.7,9.5h-0.2c-1.3-3.2-2.5-6-4.1-9.5l-4.8-10.4H73
	l15.2,28.3L76.2,119z M300.9,102.1c6.6,2.4,9.1,4.4,9.1,8c0,3.7-3,6.2-8.7,6.2c-5.3,0-10.4-1.8-13.7-3.6l-1.5,6.5
	c9.8,1.8,18.6,3.7,26.2,5.5c7-3,10.3-9,10.3-15.6c0-8.1-4.4-13.3-14.1-17.1c-7.1-2.8-10.1-4.4-10.1-8.1c0-2.9,2.6-5.5,7.9-5.5
	c5.3,0,9.2,1.6,11.3,2.7l2.8-10.4c-3.2-1.6-7.7-2.9-13.9-2.9c-12.8,0-20.6,7.4-20.6,17.2C285.9,93.4,291.9,98.7,300.9,102.1z
	 M277.6,117.7c2.8-4.2,4.2-9.7,4.2-16.8V68.8h-13.3v32.9c0,7.3-2,11.8-5.7,13.8C267.9,116.1,272.9,116.9,277.6,117.7z M250.7,113.9
	c-2.4-2.4-3.7-6.5-3.7-12.3V68.8h-13.3v31.9c0,4.5,0.5,8.3,1.5,11.6C240.6,112.8,245.7,113.3,250.7,113.9z M169.1,38.2
	c0,0,2.7,12.2,28.6,10.4c0,0,17.7-5.2,33.1,10.4c0,0,3.6-20,26.3-21.8c0,0-17.3-2.7-28.3,10.9c0,0-7.8-10.5-31.3-4.2
	C197.4,43.9,183.1,49.8,169.1,38.2z M230.4,3.2c0,0-4.7,11.7,17.7,24.7c0,0,17.5,5.7,21.5,27.2c0,0,14.2-14.4,34-3.2
	c0,0-12.8-12-29.6-7c0,0-0.6-13.1-23.5-21.1C250.6,23.9,235.4,20.7,230.4,3.2z"/>
</svg>
