<?xml version="1.0" encoding="utf-8"?>
<!-- Generator: Adobe Illustrator 22.0.1, SVG Export Plug-In . SVG Version: 6.00 Build 0)  -->
<svg version="1.1" id="Layer_1" xmlns="http://www.w3.org/2000/svg" xmlns:xlink="http://www.w3.org/1999/xlink" x="0px" y="0px"
	 viewBox="0 0 36 36" style="enable-background:new 0 0 36 36;" xml:space="preserve">
<style type="text/css">
	.st0{fill:#D7002E;}
</style>
<g>
	<g id="_x33__24_">
		<g>
			<path class="st0" d="M0,18c0,9.9,8.1,18,18,18s18-8.1,18-18S27.9,0,18,0S0,8.1,0,18z M14.5,8.4l8.6,8.6c0.3,0.3,0.4,0.6,0.3,1
				c0.1,0.3,0,0.7-0.3,1l-8.6,8.6c-0.4,0.4-1.2,0.4-1.6,0s-0.4-1.2,0-1.6l8-8l-8-8c-0.4-0.4-0.4-1.2,0-1.6C13.3,8,14,8,14.5,8.4z"/>
		</g>
	</g>
</g>
</svg>
