<?xml version="1.0" encoding="utf-8"?>
<!-- Generator: Adobe Illustrator 22.0.1, SVG Export Plug-In . SVG Version: 6.00 Build 0)  -->
<svg version="1.1" id="Layer_1" xmlns="http://www.w3.org/2000/svg" xmlns:xlink="http://www.w3.org/1999/xlink" x="0px" y="0px"
	 viewBox="0 0 36 36" style="enable-background:new 0 0 36 36;" xml:space="preserve">
<style type="text/css">
	.st0{fill:#D7002E;}
</style>
<g>
	<g id="_x33__24_">
		<g>
			<path class="st0" d="M36,18c0-9.9-8.1-18-18-18S0,8.1,0,18s8.1,18,18,18S36,27.9,36,18z M21.5,27.6L12.9,19
				c-0.3-0.3-0.4-0.6-0.3-1c-0.1-0.3,0-0.7,0.3-1l8.6-8.6C22,8,22.7,8,23.1,8.4c0.4,0.4,0.4,1.2,0,1.6l-8,8l8,8
				c0.4,0.4,0.4,1.2,0,1.6C22.7,28,22,28,21.5,27.6z"/>
		</g>
	</g>
</g>
</svg>
