<?xml version="1.0" encoding="utf-8"?>
<!-- Generator: Adobe Illustrator 22.0.1, SVG Export Plug-In . SVG Version: 6.00 Build 0)  -->
<svg version="1.1" id="Layer_1" xmlns="http://www.w3.org/2000/svg" xmlns:xlink="http://www.w3.org/1999/xlink" x="0px" y="0px"
	 viewBox="0 0 175 140" style="enable-background:new 0 0 175 140;" xml:space="preserve">
<style type="text/css">
	.st0{fill:#273133;}
</style>
<g>
	<path class="st0" d="M130.6,72.3V7.5h-21.4V0h-3.9v7.5H68.9V0H65v7.5H43.5v87.4H108L130.6,72.3z M109.2,88.2V73.4h14.8L109.2,88.2z
		 M65,11.4v7.5h3.9v-7.5h36.3v7.5h3.9v-7.5h17.5v16.2H47.5V11.4H65z M47.5,31.5h79.2v38h-21.4V91H47.5V31.5z"/>
	<path class="st0" d="M87.1,58.2c-4.7,0-7.5-2.2-7.5-6c0-3.3,3.4-6,7.5-6s7.5,2.7,7.5,6h3.9c0-4.9-4.1-8.9-9.5-9.7v-5.2h-3.9v5.2
		c-5.4,0.8-9.5,4.9-9.5,9.7c0,4.9,3.5,9.9,11.4,9.9c4.6,0,7.5,2.3,7.5,6c0,3.3-3.4,6-7.5,6s-7.5-2.7-7.5-6h-3.9
		c0,4.9,4.1,8.9,9.5,9.7V83H89v-5.2c5.4-0.8,9.5-4.9,9.5-9.7C98.5,62.3,93.8,58.2,87.1,58.2z"/>
	<path class="st0" d="M162.2,116.4V33.9c0-6.8-5.6-12.4-12.4-12.4l-14,0v3.9l14,0c4.7,0,8.5,3.8,8.5,8.5v82.5H117l-4.5,5.2l-2.3,2.7
		H64l-2.5-2.9l-4.3-5H15.9V33.9c0-4.7,3.8-8.5,8.5-8.5l13.5,0v-3.9l-13.5,0c-6.8,0-12.4,5.6-12.4,12.4v82.5H0.9v9.9
		c0,7.6,6.2,13.7,13.7,13.7h145c7.6,0,13.7-6.2,13.7-13.7v-9.9H162.2z M159.6,136.1h-145c-5.4,0-9.8-4.4-9.8-9.8v-5.9h50.6l3.1,3.6
		l3.7,4.3H112l4.6-5.4l2.2-2.5h50.6v5.9C169.4,131.7,165,136.1,159.6,136.1z"/>
	<path class="st0" d="M147.1,39.7v65.6H27V39.7c0-1.7,1.4-3.1,3.1-3.1h7.7v-3.9h-7.7c-3.9,0-7,3.2-7,7v69.5H151V39.7
		c0-3.9-3.2-7-7-7h-8.2v3.9h8.2C145.7,36.6,147.1,38,147.1,39.7z"/>
	<path class="st0" d="M107.3,120.3v-3.9h-3.9v3.9C107.3,120.3,103.4,120.3,107.3,120.3z"/>
	<path class="st0" d="M98.2,120.3v-3.9h-3.9v3.9C98.2,120.3,94.3,120.3,98.2,120.3z"/>
	<path class="st0" d="M71.2,120.3v-3.9h-3.9v3.9C71.2,120.3,67.3,120.3,71.2,120.3z"/>
	<path class="st0" d="M80.2,120.3v-3.9h-3.9v3.9C80.2,120.3,76.3,120.3,80.2,120.3z"/>
	<path class="st0" d="M89.3,120.3v-3.9h-3.9v3.9C89.3,120.3,85.3,120.3,89.3,120.3z"/>
</g>
</svg>
