<?xml version="1.0" encoding="utf-8"?>
<!-- Generator: Adobe Illustrator 22.0.1, SVG Export Plug-In . SVG Version: 6.00 Build 0)  -->
<svg version="1.1" id="Layer_1" xmlns="http://www.w3.org/2000/svg" xmlns:xlink="http://www.w3.org/1999/xlink" x="0px" y="0px"
	 viewBox="0 0 175 140" style="enable-background:new 0 0 175 140;" xml:space="preserve">
<style type="text/css">
	.st0{fill:#273133;}
</style>
<g>
	<path class="st0" d="M98.3,120.1v-4h-4v4C98.3,120.1,94.3,120.1,98.3,120.1z"/>
	<path class="st0" d="M107.4,120.1v-4h-4v4C107.4,120.1,103.4,120.1,107.4,120.1z"/>
	<path class="st0" d="M89.2,120.1v-4h-4v4C89.2,120.1,85.2,120.1,89.2,120.1z"/>
	<path class="st0" d="M71,120.1v-4h-4v4C71,120.1,67,120.1,71,120.1z"/>
	<path class="st0" d="M80.1,120.1v-4h-4v4C80.1,120.1,76.1,120.1,80.1,120.1z"/>
	<path class="st0" d="M162.7,66.6h-4v49.6h-41.6l-3.9,4.5l-3,3.5H63.7l-3.1-3.6l-3.7-4.3H15.2V29c0-4.7,3.8-8.5,8.5-8.5h86.1v-4
		H23.7c-6.9,0-12.5,5.6-12.5,12.5v87.2H0v10c0,7.6,6.2,13.9,13.9,13.9h146.3c7.6,0,13.9-6.2,13.9-13.9v-10h-11.2V66.6z M170,126.1
		c0,5.5-4.4,9.9-9.9,9.9H13.9c-5.5,0-9.9-4.4-9.9-9.9v-6H55l3.8,4.5l3,3.5h50.2l3.1-3.6l3.7-4.3H170V126.1z"/>
	<path class="st0" d="M91.3,27.7H29.6c-3.9,0-7.1,3.2-7.1,7.1v74.1h129V72h-4v33H26.4V34.8c0-1.7,1.4-3.2,3.2-3.2h61.7V27.7z"/>
	<rect x="45.3" y="81.6" transform="matrix(0.9163 -0.4006 0.4006 0.9163 -29.4859 26.0887)" class="st0" width="4.7" height="4"/>
	<rect x="61.1" y="84" transform="matrix(0.9159 -0.4014 0.4014 0.9159 -29.1755 32.6867)" class="st0" width="4.7" height="4"/>
	<rect x="89" y="71.8" transform="matrix(0.9162 -0.4006 0.4006 0.9162 -21.9127 42.7617)" class="st0" width="4.7" height="4"/>
	<rect x="60.5" y="56.3" transform="matrix(0.916 -0.4013 0.4013 0.916 -18.1208 30.1223)" class="st0" width="4.7" height="4"/>
	<rect x="55.5" y="67.8" transform="matrix(0.9159 -0.4014 0.4014 0.9159 -23.1445 29.1037)" class="st0" width="4.7" height="4"/>
	<rect x="62.8" y="73.9" transform="matrix(0.9161 -0.4009 0.4009 0.9161 -24.9683 32.4876)" class="st0" width="4.7" height="4"/>
	<rect x="70.8" y="79.8" transform="matrix(0.9159 -0.4014 0.4014 0.9159 -26.664 36.2122)" class="st0" width="4.7" height="4"/>
	<rect x="80" y="75.7" transform="matrix(0.9161 -0.401 0.401 0.9161 -24.2396 39.5473)" class="st0" width="4.7" height="4"/>
	<rect x="87.5" y="80.9" transform="matrix(0.9163 -0.4005 0.4005 0.9163 -25.6574 42.9152)" class="st0" width="4.7" height="4"/>
	<rect x="79.3" y="84.4" transform="matrix(0.9163 -0.4005 0.4005 0.9163 -27.77 39.9463)" class="st0" width="4.7" height="4"/>
	<rect x="74.2" y="50.4" transform="matrix(0.9162 -0.4007 0.4007 0.9162 -14.5659 35.0351)" class="st0" width="4.7" height="4"/>
	<rect x="81" y="66" transform="matrix(0.9163 -0.4005 0.4005 0.9163 -20.2467 39.0653)" class="st0" width="4.7" height="4"/>
	<rect x="81.7" y="56.4" transform="matrix(0.9163 -0.4005 0.4005 0.9163 -16.3486 38.5285)" class="st0" width="4.7" height="4"/>
	<rect x="73.5" y="60" transform="matrix(0.9161 -0.401 0.401 0.9161 -18.4759 35.6111)" class="st0" width="4.7" height="4"/>
	<path class="st0" d="M174.3,47.9L155.9,8.7c-0.8-1.7-2.3-3.1-4.2-3.7c-1.8-0.6-3.9-0.4-5.5,0.6L93.5,35.9c-3,1.7-4.2,5.3-3,8.5
		L103,77.2c0.7,1.8,2,3.1,3.7,3.9c0.9,0.4,1.8,0.6,2.8,0.6c0.9,0,1.8-0.2,2.6-0.5l58.6-23.9c1.8-0.7,3.1-2.1,3.8-3.9
		C175.2,51.6,175.2,49.7,174.3,47.9z M170.8,49.6c0.2,0.3,0.2,0.7,0.3,1l-34.6-7.5l15.3-33.6c0.2,0.2,0.4,0.5,0.6,0.8L170.8,49.6z
		 M147.4,9.5L129.9,48c-0.9,1.9-3.1,2.9-5.1,2.1L95.5,39.4c0,0,0,0,0,0L147.4,9.5z M94.3,43.1l23.4,8.6L106.8,76
		c0-0.1-0.1-0.1-0.1-0.2L94.3,43.1z M110.6,77.5c0,0-0.1,0-0.1,0l10.9-24.5l2.1,0.8c0.9,0.3,1.8,0.5,2.7,0.5c3.1,0,6-1.8,7.3-4.7
		l1.3-2.8l33.4,7.2L110.6,77.5z"/>
</g>
</svg>
