<?xml version="1.0" encoding="utf-8"?>
<!-- Generator: Adobe Illustrator 22.0.1, SVG Export Plug-In . SVG Version: 6.00 Build 0)  -->
<svg version="1.1" id="Layer_1" xmlns="http://www.w3.org/2000/svg" xmlns:xlink="http://www.w3.org/1999/xlink" x="0px" y="0px"
	 viewBox="0 0 175 140" style="enable-background:new 0 0 175 140;" xml:space="preserve">
<path d="M99,121.6h-4.6V99.1c0-1.3-1-2.3-2.3-2.3s-2.3,1-2.3,2.3v22.5H30.1V75.7h19.1c1.3,0,2.3-1,2.3-2.3c0-1.3-1-2.3-2.3-2.3H27.8
	c-1.3,0-2.3,1-2.3,2.3v48.2h-4.6c-1.3,0-2.3,1-2.3,2.3v4.6c0,6.3,5.1,11.5,11.5,11.5h59.7c6.3,0,11.5-5.1,11.5-11.5v-4.6
	C101.3,122.7,100.2,121.6,99,121.6z M96.7,128.5c0,3.8-3.1,6.9-6.9,6.9h-4.6v-2.3c0-1.3-1-2.3-2.3-2.3s-2.3,1-2.3,2.3v2.3H39.3v-2.3
	c0-1.3-1-2.3-2.3-2.3s-2.3,1-2.3,2.3v2.3h-4.6c-3.8,0-6.9-3.1-6.9-6.9v-2.3h73.4V128.5z M135.7,18.4v2.3h2.3c1.3,0,2.3,1,2.3,2.3
	s-1,2.3-2.3,2.3h-2.3v6.9c0,1.3-1,2.3-2.3,2.3c-1.3,0-2.3-1-2.3-2.3v-6.9h-2.3c-1.3,0-2.3-1-2.3-2.3s1-2.3,2.3-2.3h2.3v-2.3
	c0-3.8,3.1-6.9,6.9-6.9h4.6c1.3,0,2.3,1,2.3,2.3s-1,2.3-2.3,2.3H138C136.7,16.1,135.7,17.1,135.7,18.4z M156.4,9.2v27.5
	c0,3.8-3.1,6.9-6.9,6.9h-27.5c-3.8,0-6.9-3.1-6.9-6.9V23c0-1.3,1-2.3,2.3-2.3c1.3,0,2.3,1,2.3,2.3v13.8c0,1.3,1,2.3,2.3,2.3h27.5
	c1.3,0,2.3-1,2.3-2.3V9.2c0-1.3-1-2.3-2.3-2.3h-27.5c-1.3,0-2.3,1-2.3,2.3v4.6c0,1.3-1,2.3-2.3,2.3c-1.3,0-2.3-1-2.3-2.3V9.2
	c0-3.8,3.1-6.9,6.9-6.9h27.5C153.3,2.3,156.4,5.4,156.4,9.2z M126.5,94.1c0,5.1,4.1,9.2,9.2,9.2s9.2-4.1,9.2-9.2s-4.1-9.2-9.2-9.2
	S126.5,89,126.5,94.1z M140.3,94.1c0,2.5-2.1,4.6-4.6,4.6c-2.5,0-4.6-2.1-4.6-4.6c0-2.5,2.1-4.6,4.6-4.6
	C138.2,89.5,140.3,91.6,140.3,94.1z M156.4,80.3v13.8c0,1.3-1,2.3-2.3,2.3c-1.3,0-2.3-1-2.3-2.3V80.3c0-1.3-1-2.3-2.3-2.3h-27.5
	c-1.3,0-2.3,1-2.3,2.3v27.5c0,1.3,1,2.3,2.3,2.3h27.5c1.3,0,2.3-1,2.3-2.3v-4.6c0-1.3,1-2.3,2.3-2.3c1.3,0,2.3,1,2.3,2.3v4.6
	c0,3.8-3.1,6.9-6.9,6.9h-27.5c-3.8,0-6.9-3.1-6.9-6.9V80.3c0-3.8,3.1-6.9,6.9-6.9h27.5C153.3,73.4,156.4,76.5,156.4,80.3z
	 M70.2,29.5c0.4,0.2,0.8,0.3,1.2,0.3c0.4,0,0.7-0.1,1-0.3l13.8-6.9c1.1-0.6,1.6-2,1-3.1c-0.2-0.4-0.6-0.8-1-1l-13.8-6.9
	c-1.1-0.6-2.5-0.1-3.1,1c-0.2,0.3-0.2,0.7-0.2,1v13.8C69.1,28.3,69.5,29.1,70.2,29.5z M73.7,17.5l6.3,3.2l-6.3,3.2V17.5z M76,41.3
	c11.4,0,20.7-9.2,20.7-20.7S87.4,0,76,0S55.4,9.2,55.4,20.7S64.6,41.3,76,41.3z M76,4.6c8.9,0,16.1,7.2,16.1,16.1S84.9,36.7,76,36.7
	S60,29.5,60,20.7S67.2,4.6,76,4.6z M97.6,50c-1-0.8-1.2-2.2-0.5-3.2l6.9-9.2c0.8-1,2.2-1.2,3.2-0.5c1,0.8,1.2,2.2,0.5,3.2l-6.9,9.2
	c-0.4,0.6-1.1,0.9-1.8,0.9C98.5,50.5,98,50.3,97.6,50z M104,58.8c-0.8-1-0.6-2.5,0.5-3.2l9.2-6.9c1-0.8,2.5-0.6,3.2,0.5
	c0.8,1,0.6,2.5-0.5,3.2l-9.2,6.9c-0.4,0.3-0.9,0.5-1.4,0.5C105.1,59.7,104.5,59.3,104,58.8L104,58.8z M126.5,63.9
	c0.2,1.2-0.6,2.4-1.9,2.7l-11.5,2.3h-0.5c-1.3,0.1-2.4-0.8-2.5-2.1c-0.1-1.3,0.8-2.4,2.1-2.5l11.5-2.3c0,0,0.1,0,0.1,0
	C125.1,61.7,126.3,62.6,126.5,63.9C126.5,63.8,126.5,63.9,126.5,63.9z M20.9,64.3h27.5c1.3,0,2.3-1,2.3-2.3V25.2
	c0-1.3-1-2.3-2.3-2.3H20.9c-1.3,0-2.3,1-2.3,2.3V62C18.6,63.2,19.7,64.3,20.9,64.3z M23.2,27.5h23v32.1h-23V27.5z M41.6,34.4
	c0,1.3-1,2.3-2.3,2.3h-4.6c-1.3,0-2.3-1-2.3-2.3c0-1.3,1-2.3,2.3-2.3h4.6C40.6,32.1,41.6,33.2,41.6,34.4z M41.6,43.6
	c0,1.3-1,2.3-2.3,2.3h-9.2c-1.3,0-2.3-1-2.3-2.3c0-1.3,1-2.3,2.3-2.3h9.2C40.6,41.3,41.6,42.3,41.6,43.6z M41.6,52.8
	c0,1.3-1,2.3-2.3,2.3h-9.2c-1.3,0-2.3-1-2.3-2.3c0-1.3,1-2.3,2.3-2.3h9.2C40.6,50.5,41.6,51.5,41.6,52.8z M97,63.6
	c-0.6-1.1-2-1.5-3.1-0.8c-1.1,0.6-1.5,2-0.8,3.1l10.1,17.5L66.4,97.2c0,0,0,0-0.2,0H66l-6,3.4l-4,2.3c-1.1,0.6-2.3,0.8-3.5,0.5
	c-1.2-0.3-2.2-1.1-2.8-2.1l-4.6-7.9c-1.1-2.2-0.4-4.8,1.7-6.1l7.9-4.6l5.7,9.9c0.4,0.7,1.2,1.2,2,1.1c1.3,0,2.3-1,2.3-2.3
	c0-0.4-0.1-0.8-0.3-1.2L58.7,80l28.8-23.8l0.9,1.6c0.6,1.1,2,1.5,3.1,0.8c1.1-0.6,1.5-2,0.8-3.1l-2.3-4c-0.3-0.6-0.9-1-1.6-1.1
	c-0.7-0.1-1.4,0.1-1.9,0.5L54.5,77.5l-9.8,5.6c-3.6,2.1-5.3,6.4-4.2,10.4l-2.3,1.3c-3.3,1.9-4.4,6.1-2.5,9.4
	c0.9,1.6,2.4,2.8,4.2,3.2c0.6,0.2,1.2,0.2,1.8,0.2c1.2,0,2.4-0.3,3.4-0.9l2.3-1.3c1.1,1.1,2.5,2,4,2.4c0.8,0.2,1.6,0.3,2.4,0.3
	c1.6,0,3.2-0.4,4.6-1.2l2-1.1l4.6,8c1.9,3.3,6.1,4.4,9.4,2.5c3.3-1.9,4.4-6.1,2.5-9.4c0,0,0,0,0,0l-4.2-7.3l34.4-12.9
	c0.6-0.2,1.1-0.7,1.4-1.4c0.2-0.6,0.2-1.3-0.2-1.9L97,63.6z M42.7,102.8c-0.5,0.3-1.2,0.4-1.7,0.2c-0.6-0.2-1.1-0.5-1.4-1.1
	c-0.3-0.5-0.4-1.2-0.2-1.7c0.2-0.6,0.5-1.1,1.1-1.4l2-1.1l2.3,4L42.7,102.8z M72.9,109.2c0.3,0.5,0.4,1.2,0.2,1.7
	c-0.2,0.6-0.6,1.1-1.1,1.4c-1.1,0.6-2.5,0.3-3.1-0.8l-4.6-8l3.8-2.2h0.2L72.9,109.2z"/>
</svg>
