<?xml version="1.0" encoding="utf-8"?>
<!-- Generator: Adobe Illustrator 22.0.1, SVG Export Plug-In . SVG Version: 6.00 Build 0)  -->
<svg version="1.1" id="Layer_1" xmlns="http://www.w3.org/2000/svg" xmlns:xlink="http://www.w3.org/1999/xlink" x="0px" y="0px"
	 viewBox="0 0 175 140" style="enable-background:new 0 0 175 140;" xml:space="preserve">
<g>
	<g>
		<g>
			<path d="M33.8,9.3h-2.3c-1.3,0-2.3,1-2.3,2.3s1,2.3,2.3,2.3h2.3c1.3,0,2.3-1,2.3-2.3S35.1,9.3,33.8,9.3z"/>
			<path d="M45.5,9.3h-2.3c-1.3,0-2.3,1-2.3,2.3s1,2.3,2.3,2.3h2.3c1.3,0,2.3-1,2.3-2.3S46.8,9.3,45.5,9.3z"/>
			<path d="M57.2,9.3h-2.3c-1.3,0-2.3,1-2.3,2.3s1,2.3,2.3,2.3h2.3c1.3,0,2.3-1,2.3-2.3S58.5,9.3,57.2,9.3z"/>
			<path d="M129.5,9.3h-63c-1.3,0-2.3,1-2.3,2.3s1,2.3,2.3,2.3h63c1.3,0,2.3-1,2.3-2.3S130.8,9.3,129.5,9.3z"/>
			<path d="M152.8,84h-2.3V72.3c0-6.5-2.5-12.8-7-17.6V11.7c0-6.4-5.2-11.7-11.7-11.7H29.2c-6.4,0-11.7,5.2-11.7,11.7V105
				c0,6.4,5.2,11.7,11.7,11.7h63v7c0,9,7.3,16.3,16.3,16.3h32.7c9,0,16.3-7.3,16.3-16.3v-35C157.5,86.1,155.4,84,152.8,84z
				 M145.8,72.3V84h-42V72.3c0-11.6,9.4-21,21-21C136.4,51.3,145.8,60.7,145.8,72.3z M22.2,11.7c0-3.9,3.1-7,7-7h102.7
				c3.9,0,7,3.1,7,7v7H22.2V11.7z M92.2,88.7V112h-63c-3.9,0-7-3.1-7-7V23.3h116.7v27.5c-7.9-5.2-18-5.6-26.2-1.1
				S99.2,62.9,99.2,72.3V84h-2.3C94.3,84,92.2,86.1,92.2,88.7z M152.8,93.3h-7c-1.3,0-2.3,1-2.3,2.3c0,1.3,1,2.3,2.3,2.3h7v4.7h-7
				c-1.3,0-2.3,1-2.3,2.3s1,2.3,2.3,2.3h7v4.7h-7c-1.3,0-2.3,1-2.3,2.3c0,1.3,1,2.3,2.3,2.3h7v4.7h-7c-1.3,0-2.3,1-2.3,2.3
				c0,1.3,1,2.3,2.3,2.3h6.8c-1.1,5.4-5.9,9.3-11.4,9.3h-32.7c-5.5,0-10.3-3.9-11.4-9.3h6.8c1.3,0,2.3-1,2.3-2.3
				c0-1.3-1-2.3-2.3-2.3h-7v-4.7h7c1.3,0,2.3-1,2.3-2.3c0-1.3-1-2.3-2.3-2.3h-7v-4.7h7c1.3,0,2.3-1,2.3-2.3s-1-2.3-2.3-2.3h-7V98h7
				c1.3,0,2.3-1,2.3-2.3c0-1.3-1-2.3-2.3-2.3h-7v-4.7h56L152.8,93.3L152.8,93.3z"/>
			<path d="M122.5,113.9v5.1c0,1.3,1,2.3,2.3,2.3c1.3,0,2.3-1,2.3-2.3v-5.1c3.2-1.1,5.1-4.4,4.6-7.8c-0.6-3.4-3.5-5.8-6.9-5.8
				c-3.4,0-6.3,2.4-6.9,5.8C117.4,109.5,119.3,112.8,122.5,113.9z M124.8,105c1.3,0,2.3,1,2.3,2.3c0,1.3-1,2.3-2.3,2.3
				c-1.3,0-2.3-1-2.3-2.3C122.5,106,123.5,105,124.8,105z"/>
			<path d="M57.2,46.7c-1.3,0-2.3,1-2.3,2.3v7H36.2V37.3h9.3c1.3,0,2.3-1,2.3-2.3s-1-2.3-2.3-2.3h-9.3c-2.6,0-4.7,2.1-4.7,4.7V56
				c0,2.6,2.1,4.7,4.7,4.7h18.7c2.6,0,4.7-2.1,4.7-4.7v-7C59.5,47.7,58.5,46.7,57.2,46.7z"/>
			<path d="M42.5,42.7c-0.9-0.9-2.4-0.9-3.3,0c-0.9,0.9-0.9,2.4,0,3.3l4.7,4.7c0.4,0.4,1,0.7,1.6,0.7h0.1c0.7,0,1.3-0.3,1.7-0.8
				l11.7-14c0.5-0.6,0.7-1.5,0.4-2.3c-0.3-0.8-1-1.4-1.8-1.5c-0.8-0.1-1.7,0.2-2.2,0.8l-10,12L42.5,42.7z"/>
			<path d="M57.2,86.3c-1.3,0-2.3,1-2.3,2.3v7H36.2V77h9.3c1.3,0,2.3-1,2.3-2.3c0-1.3-1-2.3-2.3-2.3h-9.3c-2.6,0-4.7,2.1-4.7,4.7
				v18.7c0,2.6,2.1,4.7,4.7,4.7h18.7c2.6,0,4.7-2.1,4.7-4.7v-7C59.5,87.4,58.5,86.3,57.2,86.3z"/>
			<path d="M42.5,82.4c-0.9-0.9-2.4-0.9-3.3,0c-0.9,0.9-0.9,2.4,0,3.3l4.7,4.7c0.4,0.4,1,0.7,1.6,0.7h0.1c0.7,0,1.3-0.3,1.7-0.8
				l11.7-14c0.5-0.6,0.7-1.5,0.4-2.3c-0.3-0.8-1-1.4-1.8-1.5c-0.8-0.1-1.7,0.2-2.2,0.8l-10,12L42.5,82.4z"/>
			<path d="M68.8,39.7h18.7c1.3,0,2.3-1,2.3-2.3s-1-2.3-2.3-2.3H68.8c-1.3,0-2.3,1-2.3,2.3C66.5,38.6,67.5,39.7,68.8,39.7z"/>
			<path d="M101.5,49c0-1.3-1-2.3-2.3-2.3H68.8c-1.3,0-2.3,1-2.3,2.3c0,1.3,1,2.3,2.3,2.3h30.3C100.5,51.3,101.5,50.3,101.5,49z"/>
			<path d="M87.5,74.7H68.8c-1.3,0-2.3,1-2.3,2.3s1,2.3,2.3,2.3h18.7c1.3,0,2.3-1,2.3-2.3S88.8,74.7,87.5,74.7z"/>
			<path d="M85.2,86.3H68.8c-1.3,0-2.3,1-2.3,2.3s1,2.3,2.3,2.3h16.3c1.3,0,2.3-1,2.3-2.3S86.5,86.3,85.2,86.3z"/>
		</g>
	</g>
</g>
</svg>
