<?xml version="1.0" encoding="utf-8"?>
<!-- Generator: Adobe Illustrator 22.0.1, SVG Export Plug-In . SVG Version: 6.00 Build 0)  -->
<svg version="1.1" id="Layer_1" xmlns="http://www.w3.org/2000/svg" xmlns:xlink="http://www.w3.org/1999/xlink" x="0px" y="0px"
	 viewBox="0 0 175 140" style="enable-background:new 0 0 175 140;" xml:space="preserve">
<style type="text/css">
	.st0{fill:#273133;}
</style>
<g>
	<rect x="52.1" y="125.8" class="st0" width="25.3" height="3.8"/>
	<path class="st0" d="M103.9,114.6H25.7V24.8h78.2v11.2h3.8V11.6C107.7,5.2,102.5,0,96,0H33.5c-6.4,0-11.6,5.2-11.6,11.6v116.7
		c0,6.4,5.2,11.6,11.6,11.6H96c6.4,0,11.6-5.2,11.6-11.6V94h-3.8V114.6z M33.5,3.8H96c4.3,0,7.8,3.5,7.8,7.8V21H25.7v-9.3
		C25.7,7.3,29.2,3.8,33.5,3.8z M96,136.2H33.5c-4.3,0-7.8-3.5-7.8-7.8v-9.9h78.2v9.9C103.9,132.7,100.4,136.2,96,136.2z"/>
	<rect x="52.5" y="11.3" class="st0" width="3.7" height="3.8"/>
	<rect x="59.2" y="11.3" class="st0" width="17.9" height="3.8"/>
	<path class="st0" d="M43.4,68.5l-0.8-3l-11.2,2.9l8.1,32l11.2-2.8l-0.8-3l7.8-0.8l1.1,4.5c0.7,2.8,3.2,4.7,6,4.7c0.1,0,0.3,0,0.4,0
		l24.7-1.5h0c1.8-0.1,3.5-1.1,4.6-2.6c1.1-1.5,1.4-3.4,1-5.2L94.7,90l31.5-3.1l-12.2-48L43.4,68.5z M36,71.1l3.9-1l6.2,24.6l-3.9,1
		L36,71.1z M91.9,94.5c0.2,0.7,0,1.4-0.4,2c-0.4,0.6-1.1,0.9-1.8,1L65,99.1c-1.2,0.1-2.2-0.7-2.5-1.8l-1-4l9-0.9l20.3-2L91.9,94.5z
		 M93.8,86.3L93.8,86.3l-37,3.7l0,0L49,90.7l-4.7-18.5l67.1-28.2l10,39.5L93.8,86.3z"/>
	<rect x="133" y="55.2" transform="matrix(0.9693 -0.2458 0.2458 0.9693 -9.6399 36.9062)" class="st0" width="19.9" height="3.8"/>
	
		<rect x="127.4" y="42.9" transform="matrix(0.8562 -0.5167 0.5167 0.8562 -3.5888 76.7335)" class="st0" width="17.3" height="3.8"/>
	
		<rect x="140.8" y="62.5" transform="matrix(4.616302e-02 -0.9989 0.9989 4.616302e-02 65.0545 210.4589)" class="st0" width="3.8" height="17.4"/>
	
		<rect x="138.1" y="75.8" transform="matrix(0.3236 -0.9462 0.9462 0.3236 15.7173 188.9774)" class="st0" width="3.8" height="15.4"/>
	
		<rect x="120.1" y="33.3" transform="matrix(0.6772 -0.7358 0.7358 0.6772 15.3138 105.4079)" class="st0" width="15.4" height="3.8"/>
	
		<rect x="53.5" y="62.6" transform="matrix(0.9221 -0.3868 0.3868 0.9221 -18.7183 36.0104)" class="st0" width="53.1" height="3.8"/>
</g>
</svg>
