<?xml version="1.0" encoding="utf-8"?>
<!-- Generator: Adobe Illustrator 22.0.1, SVG Export Plug-In . SVG Version: 6.00 Build 0)  -->
<svg version="1.1" id="Layer_1" xmlns="http://www.w3.org/2000/svg" xmlns:xlink="http://www.w3.org/1999/xlink" x="0px" y="0px"
	 viewBox="0 0 358 122" style="enable-background:new 0 0 358 122;" xml:space="preserve">
<style type="text/css">
	.st0{fill:#DD6052;}
</style>
<path class="st0" d="M353.6,1c-1.5,0-2.8,1.3-2.8,2.8c0,0.6,0.2,1.2,0.5,1.6l-46.7,95.2c-1.1,0.1-2,0.7-2.4,1.7h-28.8
	c-0.5-0.8-1.3-1.3-2.3-1.3l-35.5-73.4c1-0.4,1.8-1.4,1.8-2.6c0-1.5-1.3-2.8-2.8-2.8s-2.8,1.3-2.8,2.8c0,0.9,0.5,1.8,1.2,2.3
	l-34.5,48c-0.3-0.1-0.7-0.2-1.1-0.2c-1.5,0-2.8,1.3-2.8,2.8c0,0,0,0,0,0h-44c0,0,0,0,0,0c0-1.5-1.3-2.8-2.8-2.8s-2.8,1.3-2.8,2.8
	c0,0.6,0.2,1.1,0.5,1.6l-33.2,21.4c-0.5-0.6-1.3-0.9-2.1-0.9c-0.5,0-0.9,0.1-1.3,0.3L76.8,78.9c0.1-0.3,0.2-0.7,0.2-1.1
	c0-1.5-1.3-2.8-2.8-2.8s-2.8,1.3-2.8,2.8c0,0.6,0.2,1.2,0.5,1.6l-34.7,36.1c-0.2-0.1-0.4-0.1-0.7-0.1c-0.6,0-1.2,0.2-1.7,0.6
	L6.4,102.8c0.1-0.3,0.2-0.6,0.2-1c0-1.5-1.3-2.8-2.8-2.8S1,100.3,1,101.8c0,1.5,1.3,2.8,2.8,2.8c0.6,0,1.2-0.2,1.7-0.6L34,117.3
	c-0.1,0.3-0.2,0.6-0.2,0.9c0,1.5,1.3,2.8,2.8,2.8s2.8-1.3,2.8-2.8c0-0.7-0.3-1.4-0.8-1.9l34.6-35.9c0.3,0.1,0.6,0.2,1,0.2
	c0.6,0,1.1-0.2,1.5-0.5l32,21.1c-0.2,0.4-0.4,0.9-0.4,1.3c0,1.5,1.3,2.8,2.8,2.8s2.8-1.3,2.8-2.8c0-0.1,0-0.2,0-0.3l33.8-21.9
	c0.3,0.1,0.7,0.2,1,0.2c1,0,1.8-0.5,2.3-1.2h45c0.5,0.7,1.3,1.2,2.3,1.2c1.5,0,2.8-1.3,2.8-2.8c0-0.6-0.2-1.1-0.5-1.5l34.4-47.9
	l35.4,73c-0.8,0.5-1.4,1.4-1.4,2.4c0,1.5,1.3,2.8,2.8,2.8c1.5,0,2.7-1.2,2.8-2.7H302c0.2,1.3,1.4,2.3,2.7,2.3c1.5,0,2.8-1.3,2.8-2.8
	c0-1-0.6-1.9-1.4-2.4l46.5-94.6c0.3,0.1,0.6,0.2,0.9,0.2c1.5,0,2.8-1.3,2.8-2.8C356.4,2.3,355.1,1,353.6,1z"/>
</svg>
