<?xml version="1.0" encoding="utf-8"?>
<!-- Generator: Adobe Illustrator 22.0.1, SVG Export Plug-In . SVG Version: 6.00 Build 0)  -->
<svg version="1.1" id="Capa_1" xmlns="http://www.w3.org/2000/svg" xmlns:xlink="http://www.w3.org/1999/xlink" x="0px" y="0px"
	 viewBox="0 0 94 94" style="enable-background:new 0 0 94 94;" xml:space="preserve">
<style type="text/css">
	.st0{fill:#DD6052;}
</style>
<path class="st0" d="M70.5,54.8c1.7,0,3.1,1.4,3.1,3.1s-1.4,3.1-3.1,3.1s-3.1-1.4-3.1-3.1S68.8,54.8,70.5,54.8z M53.3,56.4H21.9
	c-0.9,0-1.6,0.7-1.6,1.6s0.7,1.6,1.6,1.6h31.3c0.9,0,1.6-0.7,1.6-1.6S54.1,56.4,53.3,56.4z M63.5,56.4h-4.4c-0.9,0-1.6,0.7-1.6,1.6
	s0.7,1.6,1.6,1.6h4.4c0.9,0,1.6-0.7,1.6-1.6S64.3,56.4,63.5,56.4z M67.4,76.8c0,1.7,1.4,3.1,3.1,3.1s3.1-1.4,3.1-3.1
	c0-1.7-1.4-3.1-3.1-3.1S67.4,75,67.4,76.8z M53.3,75.2H21.9c-0.9,0-1.6,0.7-1.6,1.6c0,0.9,0.7,1.6,1.6,1.6h31.3
	c0.9,0,1.6-0.7,1.6-1.6C54.8,75.9,54.1,75.2,53.3,75.2z M63.5,75.2h-4.4c-0.9,0-1.6,0.7-1.6,1.6c0,0.9,0.7,1.6,1.6,1.6h4.4
	c0.9,0,1.6-0.7,1.6-1.6C65,75.9,64.3,75.2,63.5,75.2z M94,4.7v59.5c0,2.6-2.1,4.7-4.7,4.7h-4.7c-0.9,0-1.6-0.7-1.6-1.6
	c0-0.9,0.7-1.6,1.6-1.6h4.7c0.9,0,1.6-0.7,1.6-1.6V15.7H3.1v48.6c0,0.9,0.7,1.6,1.6,1.6h4.7c0.9,0,1.6,0.7,1.6,1.6
	c0,0.9-0.7,1.6-1.6,1.6H4.7c-2.6,0-4.7-2.1-4.7-4.7V4.7C0,2.1,2.1,0,4.7,0h84.6C91.9,0,94,2.1,94,4.7z M90.9,4.7
	c0-0.9-0.7-1.6-1.6-1.6H4.7c-0.9,0-1.6,0.7-1.6,1.6v7.8h87.7V4.7z M47,6.3H6.3C5.4,6.3,4.7,7,4.7,7.8s0.7,1.6,1.6,1.6H47
	c0.9,0,1.6-0.7,1.6-1.6S47.9,6.3,47,6.3z M74.7,6.7c-0.6-0.6-1.6-0.6-2.2,0c-0.3,0.3-0.5,0.7-0.5,1.1c0,0.2,0,0.4,0.1,0.6
	c0.1,0.2,0.2,0.4,0.3,0.5c0.3,0.3,0.7,0.4,1.1,0.5c0.1,0,0.2,0,0.3,0c0.1,0,0.2,0,0.3-0.1c0.1,0,0.2-0.1,0.3-0.1
	c0.1-0.1,0.2-0.1,0.3-0.2C75.4,8.3,75.4,7.3,74.7,6.7z M81,6.7c-0.1-0.1-0.2-0.1-0.3-0.2c-0.1-0.1-0.2-0.1-0.3-0.1
	c-0.1,0-0.2-0.1-0.3-0.1c-0.2,0-0.4,0-0.6,0c-0.1,0-0.2,0-0.3,0.1c-0.1,0-0.2,0.1-0.3,0.1l-0.2,0.2c-0.6,0.6-0.6,1.6,0,2.2L79,9.1
	c0.1,0.1,0.2,0.1,0.3,0.1c0.1,0,0.2,0.1,0.3,0.1c0.1,0,0.2,0,0.3,0c0.1,0,0.2,0,0.3,0c0.1,0,0.2,0,0.3-0.1c0.1,0,0.2-0.1,0.3-0.1
	C80.9,9.1,80.9,9,81,8.9C81.6,8.3,81.6,7.3,81,6.7z M87.3,6.7c-0.6-0.6-1.6-0.6-2.2,0c-0.3,0.3-0.4,0.7-0.5,1.1
	c0,0.4,0.2,0.8,0.5,1.1c0.3,0.3,0.7,0.4,1.1,0.5c0.1,0,0.2,0,0.3,0c0.1,0,0.2,0,0.3-0.1c0.1,0,0.2-0.1,0.3-0.1l0.2-0.2
	C87.9,8.3,87.9,7.3,87.3,6.7z M86.2,23.5V36c0,2.6-2.1,4.7-4.7,4.7H11c-2.6,0-4.7-2.1-4.7-4.7V23.5c0-2.6,2.1-4.7,4.7-4.7h70.5
	C84.1,18.8,86.2,20.9,86.2,23.5z M83,23.5c0-0.9-0.7-1.6-1.6-1.6H11c-0.9,0-1.6,0.7-1.6,1.6V36c0,0.9,0.7,1.6,1.6,1.6h70.5
	c0.9,0,1.6-0.7,1.6-1.6V23.5z M86.2,43.9H45.4c-0.9,0-1.6,0.7-1.6,1.6c0,0.9,0.7,1.6,1.6,1.6h40.7c0.9,0,1.6-0.7,1.6-1.6
	C87.7,44.6,87,43.9,86.2,43.9z M92.4,92.4c0,0.9-0.7,1.6-1.6,1.6H3.1c-0.9,0-1.6-0.7-1.6-1.6c0-0.9,0.7-1.6,1.6-1.6h42.3v-6.3H18.8
	c-2.6,0-4.7-2.1-4.7-4.7v-6.3c0-2.6,2.1-4.7,4.7-4.7h26.6v-3.1H18.8c-2.6,0-4.7-2.1-4.7-4.7v-6.3c0-2.6,2.1-4.7,4.7-4.7h56.4
	c2.6,0,4.7,2.1,4.7,4.7v6.3c0,2.6-2.1,4.7-4.7,4.7H48.6v3.1h26.6c2.6,0,4.7,2.1,4.7,4.7v6.3c0,2.6-2.1,4.7-4.7,4.7H48.6v6.3h42.3
	C91.7,90.9,92.4,91.6,92.4,92.4z M75.2,62.7c0.9,0,1.6-0.7,1.6-1.6v-6.3c0-0.9-0.7-1.6-1.6-1.6H18.8c-0.9,0-1.6,0.7-1.6,1.6v6.3
	c0,0.9,0.7,1.6,1.6,1.6H75.2z M75.2,81.5c0.9,0,1.6-0.7,1.6-1.6v-6.3c0-0.9-0.7-1.6-1.6-1.6H18.8c-0.9,0-1.6,0.7-1.6,1.6v6.3
	c0,0.9,0.7,1.6,1.6,1.6H75.2z"/>
</svg>
