<?xml version="1.0" encoding="utf-8"?>
<!-- Generator: Adobe Illustrator 22.0.1, SVG Export Plug-In . SVG Version: 6.00 Build 0)  -->
<svg version="1.1" id="Layer_1" xmlns="http://www.w3.org/2000/svg" xmlns:xlink="http://www.w3.org/1999/xlink" x="0px" y="0px"
	 viewBox="0 0 208 50" style="enable-background:new 0 0 208 50;" xml:space="preserve">
<style type="text/css">
	.st0{fill:#E9B3AD;}
</style>
<path id="XMLID_2_" class="st0" d="M202.8,26.7c-1.6-1.2-3.9-1.2-5.9-0.9c-5.1,0.8-10,3.1-13.8,6.6c-0.4-2.2-2.2-4.1-4.4-4.7
	c-2.2-0.6-4.7-0.4-6.1,1.3c2.8-4.1,5.6-8.4,6.5-13.3c0.9-4.9-0.5-10.6-4.8-13.2c-4.1-2.5-9.4-1.5-13.9,0.1
	c-14.1,5-25.5,15.6-33.2,28.5c0.6-5.4-3.1-10.9-8.3-12.4c-5.2-1.5-12.4,0.7-14.8,5.6c-7.8-3-16.6-3.2-24.5-0.5
	c-6.2,2.1-11.9,5.8-18.4,6.9c-5.8,1-11.8-0.1-17.7-0.2C29.5,30.3,17.2,40.7,3.2,40.7h34.9c8.1,0.6,16.2,1.3,23.9,3.5
	c24.7,6.9,51.8,6.1,76.4-1.2c9.2,6,21.5,6.8,31.4,2.1c7,0.7,13.9,1.5,20.9,2.2c2.5,0.3,5.1,0.5,7.5-0.2c2.4-0.7,4.7-2.7,4.9-5.2
	c0.1-1.4-0.5-2.8-1.6-3.7c1.2-1.2,2.2-2.6,2.8-4.2C205.3,31.5,204.9,28.2,202.8,26.7z"/>
</svg>
