<?xml version="1.0" encoding="utf-8"?>
<!-- Generator: Adobe Illustrator 22.0.1, SVG Export Plug-In . SVG Version: 6.00 Build 0)  -->
<svg version="1.1" id="Capa_1" xmlns="http://www.w3.org/2000/svg" xmlns:xlink="http://www.w3.org/1999/xlink" x="0px" y="0px"
	 viewBox="0 0 100 100" style="enable-background:new 0 0 100 100;" xml:space="preserve">
<style type="text/css">
	.st0{fill:#DD6052;}
</style>
<path class="st0" d="M39.1,10.5c-15.7,0-28.6,12.8-28.6,28.6s12.8,28.6,28.6,28.6s28.6-12.8,28.6-28.6S54.8,10.5,39.1,10.5z
	 M39.1,64.4c-14,0-25.4-11.4-25.4-25.4s11.4-25.4,25.4-25.4s25.4,11.4,25.4,25.4S53.1,64.4,39.1,64.4z M40.7,18.5v3.2
	c-10.5,0-19,8.5-19,19h-3.2C18.5,28.4,28.4,18.5,40.7,18.5z M96.8,87.8l2.2-2.2L76.3,62.8l-2.2,2.2l-4-4c4.4-6.2,7.1-13.8,7.1-22
	c0-21-17.1-38-38.1-38S1,18.1,1,39.1s17.1,38.1,38.1,38.1c8.2,0,15.8-2.6,22-7.1l4,4l-2.2,2.2L85.5,99l2.2-2.2L67.3,76.3l9-9
	L96.8,87.8z M39.1,74C19.8,74,4.2,58.3,4.2,39.1c0-19.3,15.7-34.9,34.9-34.9S74,19.8,74,39.1S58.3,74,39.1,74z M67.3,71.8l-3.7-3.7
	c1.6-1.4,3.1-2.9,4.5-4.5l3.7,3.7L67.3,71.8z M74.8,77l2.2-2.2l2.2,2.2L77,79.2L74.8,77z M79.2,81.5l2.2-2.2l2.2,2.2l-2.2,2.2
	L79.2,81.5z M83.7,86l2.2-2.2l2.2,2.2L86,88.2L83.7,86z"/>
</svg>
